<mxfile host="app.diagrams.net" modified="2020-08-27T07:14:18.151Z" agent="5.0 (Windows NT 10.0; Win64; x64) AppleWebKit/537.36 (KHTML, like Gecko) Chrome/84.0.4147.135 Safari/537.36 Edg/84.0.522.63" etag="mf28tm0DRDxnfMLiFai2" version="13.6.5" type="github">
  <diagram id="C5RBs43oDa-KdzZeNtuy" name="Page-1">
    <mxGraphModel dx="1422" dy="794" grid="1" gridSize="10" guides="1" tooltips="1" connect="1" arrows="1" fold="1" page="1" pageScale="1" pageWidth="827" pageHeight="1169" math="0" shadow="0">
      <root>
        <mxCell id="WIyWlLk6GJQsqaUBKTNV-0" />
        <mxCell id="WIyWlLk6GJQsqaUBKTNV-1" parent="WIyWlLk6GJQsqaUBKTNV-0" />
        <mxCell id="B2tl9v60_NkSuzlNyGuY-1" value="" style="edgeStyle=orthogonalEdgeStyle;rounded=0;orthogonalLoop=1;jettySize=auto;html=1;" edge="1" parent="WIyWlLk6GJQsqaUBKTNV-1" source="kKr_DpTjc66d4Djo6QpL-0" target="B2tl9v60_NkSuzlNyGuY-0">
          <mxGeometry relative="1" as="geometry" />
        </mxCell>
        <mxCell id="kKr_DpTjc66d4Djo6QpL-0" value="Aloitus HTML-sivu" style="ellipse;whiteSpace=wrap;html=1;" parent="WIyWlLk6GJQsqaUBKTNV-1" vertex="1">
          <mxGeometry x="330" y="30" width="120" height="80" as="geometry" />
        </mxCell>
        <mxCell id="B2tl9v60_NkSuzlNyGuY-3" value="" style="edgeStyle=orthogonalEdgeStyle;rounded=0;orthogonalLoop=1;jettySize=auto;html=1;" edge="1" parent="WIyWlLk6GJQsqaUBKTNV-1" source="B2tl9v60_NkSuzlNyGuY-0" target="B2tl9v60_NkSuzlNyGuY-2">
          <mxGeometry relative="1" as="geometry" />
        </mxCell>
        <mxCell id="B2tl9v60_NkSuzlNyGuY-0" value="Pyydä&lt;br&gt;&amp;nbsp;käyttäjältä luku" style="shape=parallelogram;perimeter=parallelogramPerimeter;whiteSpace=wrap;html=1;fixedSize=1;" vertex="1" parent="WIyWlLk6GJQsqaUBKTNV-1">
          <mxGeometry x="330" y="140" width="120" height="60" as="geometry" />
        </mxCell>
        <mxCell id="B2tl9v60_NkSuzlNyGuY-5" value="" style="edgeStyle=orthogonalEdgeStyle;rounded=0;orthogonalLoop=1;jettySize=auto;html=1;" edge="1" parent="WIyWlLk6GJQsqaUBKTNV-1" source="B2tl9v60_NkSuzlNyGuY-2" target="B2tl9v60_NkSuzlNyGuY-4">
          <mxGeometry relative="1" as="geometry" />
        </mxCell>
        <mxCell id="B2tl9v60_NkSuzlNyGuY-2" value="Luo muuttuja" style="whiteSpace=wrap;html=1;" vertex="1" parent="WIyWlLk6GJQsqaUBKTNV-1">
          <mxGeometry x="330" y="230" width="120" height="60" as="geometry" />
        </mxCell>
        <mxCell id="B2tl9v60_NkSuzlNyGuY-7" value="" style="edgeStyle=orthogonalEdgeStyle;rounded=0;orthogonalLoop=1;jettySize=auto;html=1;" edge="1" parent="WIyWlLk6GJQsqaUBKTNV-1" source="B2tl9v60_NkSuzlNyGuY-4" target="B2tl9v60_NkSuzlNyGuY-6">
          <mxGeometry relative="1" as="geometry" />
        </mxCell>
        <mxCell id="B2tl9v60_NkSuzlNyGuY-4" value="Lue muuttujaan käyttäjän luku" style="whiteSpace=wrap;html=1;" vertex="1" parent="WIyWlLk6GJQsqaUBKTNV-1">
          <mxGeometry x="330" y="320" width="120" height="60" as="geometry" />
        </mxCell>
        <mxCell id="B2tl9v60_NkSuzlNyGuY-9" value="" style="edgeStyle=orthogonalEdgeStyle;rounded=0;orthogonalLoop=1;jettySize=auto;html=1;" edge="1" parent="WIyWlLk6GJQsqaUBKTNV-1" source="B2tl9v60_NkSuzlNyGuY-6" target="B2tl9v60_NkSuzlNyGuY-8">
          <mxGeometry relative="1" as="geometry" />
        </mxCell>
        <mxCell id="B2tl9v60_NkSuzlNyGuY-12" value="" style="edgeStyle=orthogonalEdgeStyle;rounded=0;orthogonalLoop=1;jettySize=auto;html=1;" edge="1" parent="WIyWlLk6GJQsqaUBKTNV-1" source="B2tl9v60_NkSuzlNyGuY-6" target="B2tl9v60_NkSuzlNyGuY-11">
          <mxGeometry relative="1" as="geometry" />
        </mxCell>
        <mxCell id="B2tl9v60_NkSuzlNyGuY-6" value="Onko&amp;nbsp;&lt;br&gt;muuttuja&lt;br&gt;&amp;gt;=0" style="rhombus;whiteSpace=wrap;html=1;" vertex="1" parent="WIyWlLk6GJQsqaUBKTNV-1">
          <mxGeometry x="350" y="410" width="80" height="80" as="geometry" />
        </mxCell>
        <mxCell id="B2tl9v60_NkSuzlNyGuY-17" style="edgeStyle=orthogonalEdgeStyle;rounded=0;orthogonalLoop=1;jettySize=auto;html=1;entryX=1;entryY=0.5;entryDx=0;entryDy=0;" edge="1" parent="WIyWlLk6GJQsqaUBKTNV-1" source="B2tl9v60_NkSuzlNyGuY-8" target="B2tl9v60_NkSuzlNyGuY-14">
          <mxGeometry relative="1" as="geometry">
            <mxPoint x="550" y="660" as="targetPoint" />
            <Array as="points">
              <mxPoint x="560" y="650" />
            </Array>
          </mxGeometry>
        </mxCell>
        <mxCell id="B2tl9v60_NkSuzlNyGuY-8" value="Tulosta:&lt;br&gt;&quot;luku on&lt;br&gt;negatiivinen&quot;" style="shape=parallelogram;perimeter=parallelogramPerimeter;whiteSpace=wrap;html=1;fixedSize=1;" vertex="1" parent="WIyWlLk6GJQsqaUBKTNV-1">
          <mxGeometry x="490" y="420" width="120" height="60" as="geometry" />
        </mxCell>
        <mxCell id="B2tl9v60_NkSuzlNyGuY-10" value="Ei" style="text;html=1;resizable=0;autosize=1;align=center;verticalAlign=middle;points=[];fillColor=none;strokeColor=none;rounded=0;" vertex="1" parent="WIyWlLk6GJQsqaUBKTNV-1">
          <mxGeometry x="445" y="410" width="30" height="20" as="geometry" />
        </mxCell>
        <mxCell id="B2tl9v60_NkSuzlNyGuY-15" value="" style="edgeStyle=orthogonalEdgeStyle;rounded=0;orthogonalLoop=1;jettySize=auto;html=1;" edge="1" parent="WIyWlLk6GJQsqaUBKTNV-1" source="B2tl9v60_NkSuzlNyGuY-11" target="B2tl9v60_NkSuzlNyGuY-14">
          <mxGeometry relative="1" as="geometry" />
        </mxCell>
        <mxCell id="B2tl9v60_NkSuzlNyGuY-11" value="Tulosta:&lt;br&gt;&quot;luku on&lt;br&gt;positiivinen&quot;" style="shape=parallelogram;perimeter=parallelogramPerimeter;whiteSpace=wrap;html=1;fixedSize=1;" vertex="1" parent="WIyWlLk6GJQsqaUBKTNV-1">
          <mxGeometry x="330" y="520" width="120" height="60" as="geometry" />
        </mxCell>
        <mxCell id="B2tl9v60_NkSuzlNyGuY-13" value="Kyllä" style="text;html=1;resizable=0;autosize=1;align=center;verticalAlign=middle;points=[];fillColor=none;strokeColor=none;rounded=0;" vertex="1" parent="WIyWlLk6GJQsqaUBKTNV-1">
          <mxGeometry x="320" y="490" width="40" height="20" as="geometry" />
        </mxCell>
        <mxCell id="B2tl9v60_NkSuzlNyGuY-14" value="The End" style="ellipse;whiteSpace=wrap;html=1;" vertex="1" parent="WIyWlLk6GJQsqaUBKTNV-1">
          <mxGeometry x="330" y="610" width="120" height="80" as="geometry" />
        </mxCell>
      </root>
    </mxGraphModel>
  </diagram>
</mxfile>
